<svg width="65" height="16" viewBox="0 0 65 16" fill="none" xmlns="http://www.w3.org/2000/svg">
<path d="M55.1736 1.18377C55.4859 0.486087 56.1862 0 57 0C57.8138 0 58.5141 0.486087 58.8264 1.18377C59.4457 0.735698 60.2952 0.664885 61 1.0718C61.7048 1.47871 62.0682 2.24983 61.9898 3.01017C62.7502 2.93174 63.5213 3.29518 63.9283 4C64.3352 4.7048 64.2644 5.55434 63.8163 6.17362C64.5139 6.4859 65 7.18618 65 8C65 8.81383 64.5139 9.51412 63.8162 9.8264C64.2644 10.4457 64.3352 11.2952 63.9283 12.0001C63.5213 12.7049 62.7502 13.0683 61.9898 12.9899C62.0682 13.7502 61.7048 14.5213 61 14.9282C60.2952 15.3351 59.4457 15.2643 58.8264 14.8162C58.5141 15.5139 57.8138 16 57 16C56.1862 16 55.4859 15.5139 55.1736 14.8162C54.5543 15.2643 53.7048 15.3351 53 14.9282C52.2952 14.5213 51.9318 13.7502 52.0102 12.9898C51.2498 13.0682 50.4787 12.7048 50.0717 12C49.6648 11.2952 49.7356 10.4457 50.1837 9.82638C49.4861 9.5141 49 8.81381 49 8C49 7.18617 49.4861 6.48587 50.1838 6.1736C49.7356 5.55432 49.6648 4.70476 50.0717 3.99993C50.4787 3.29512 51.2498 2.93168 52.0102 3.01011C51.9318 2.24978 52.2952 1.4787 53 1.0718C53.7048 0.664884 54.5543 0.735698 55.1736 1.18377ZM57 1C56.4477 1 56 1.4477 56 1.99998C56 1.99998 56.0003 2.01092 56.002 2.03069C56.0039 2.0529 56.0073 2.08271 56.0127 2.12098C56.0236 2.19822 56.0409 2.2968 56.0656 2.41719C56.115 2.65826 56.1879 2.95903 56.2792 3.30374C56.4614 3.99202 56.7067 4.81725 56.9551 5.61795L57 5.76231L57.0449 5.61795C57.2933 4.81725 57.5386 3.99202 57.7208 3.30374C57.8121 2.95903 57.885 2.65826 57.9344 2.41719C57.9591 2.2968 57.9764 2.19822 57.9873 2.12098C57.9927 2.08271 57.9961 2.0529 57.998 2.03069C57.9997 2.01088 58 2 58 2C58 1.44772 57.5523 1 57 1ZM51 9C51 9 51.0109 8.99974 51.0307 8.99802C51.0529 8.99609 51.0827 8.99274 51.121 8.98734C51.1982 8.97645 51.2968 8.95908 51.4172 8.93441C51.6583 8.88502 51.959 8.81211 52.3037 8.72082C52.992 8.53855 53.8173 8.29326 54.618 8.04489L54.7623 8L54.618 7.95511C53.8173 7.70674 52.992 7.46145 52.3037 7.27918C51.959 7.18789 51.6583 7.11498 51.4172 7.06559C51.2968 7.04092 51.1982 7.02355 51.121 7.01266C51.0827 7.00726 51.0529 7.00391 51.0307 7.00198C51.0109 7.00026 50.9998 7 50.9998 7C50.4475 7 50 7.44771 50 8C50 8.55228 50.4477 9 51 9ZM58 14C58 14 57.9997 13.9891 57.998 13.9693C57.9961 13.9471 57.9927 13.9173 57.9873 13.879C57.9764 13.8018 57.9591 13.7032 57.9344 13.5828C57.885 13.3417 57.8121 13.041 57.7208 12.6963C57.5386 12.008 57.2933 11.1827 57.0449 10.382L57 10.2377L56.9551 10.382C56.7067 11.1827 56.4614 12.008 56.2792 12.6963C56.1879 13.041 56.115 13.3417 56.0656 13.5828C56.0409 13.7032 56.0236 13.8018 56.0127 13.879C56.0073 13.9173 56.0039 13.9471 56.002 13.9693C56.0003 13.9891 56 14.0002 56 14.0002C56 14.5525 56.4477 15 57 15C57.5523 15 58 14.5523 58 14ZM52.3038 11.866C52.3038 11.866 52.3131 11.8603 52.3294 11.849C52.3476 11.8362 52.3718 11.8184 52.4022 11.7946C52.4637 11.7465 52.5404 11.6822 52.6323 11.6006C52.8164 11.4373 53.0404 11.2238 53.2933 10.9724C53.7982 10.4704 54.3902 9.84534 54.9595 9.2299L55.062 9.11884L54.9146 9.15214C54.097 9.3374 53.2597 9.53758 52.5725 9.72387C52.2283 9.81717 51.9313 9.90441 51.6979 9.98217C51.5813 10.021 51.4872 10.0553 51.4149 10.0844C51.379 10.0989 51.3516 10.1109 51.3314 10.1203C51.3135 10.1287 51.3036 10.1341 51.3036 10.1341C50.8253 10.4102 50.6616 11.0217 50.9378 11.5C51.2139 11.9783 51.8255 12.1422 52.3038 11.866ZM53.5 14.0622C53.9783 14.3383 54.5899 14.1744 54.866 13.6961C54.866 13.6961 54.8713 13.6865 54.8797 13.6686C54.8891 13.6484 54.9011 13.6209 54.9155 13.5851C54.9447 13.5127 54.979 13.4187 55.0178 13.3021C55.0956 13.0686 55.1828 12.7717 55.2761 12.4275C55.4624 11.7403 55.6626 10.903 55.8478 10.0854L55.8812 9.93789L55.7701 10.0405C55.1547 10.6097 54.5296 11.2017 54.0276 11.7067C53.7762 11.9595 53.5627 12.1836 53.3994 12.3676C53.3178 12.4596 53.2535 12.5363 53.2054 12.5977C53.1816 12.6282 53.1638 12.6523 53.151 12.6706C53.1388 12.6881 53.1339 12.6963 53.1339 12.6963C52.8577 13.1746 53.0217 13.786 53.5 14.0622ZM62.6962 5.86602C63.1745 5.58988 63.3384 4.97829 63.0622 4.5C62.7861 4.0217 62.1747 3.85774 61.6964 4.13389C61.6964 4.13389 61.6869 4.13966 61.6706 4.15103C61.6524 4.16381 61.6282 4.18161 61.5978 4.20542C61.5363 4.25348 61.4596 4.31781 61.3677 4.39937C61.1836 4.56267 60.9596 4.7762 60.7067 5.02762C60.2018 5.52961 59.6098 6.15465 59.0405 6.77009L58.938 6.88115L59.0854 6.84785C59.903 6.66259 60.7403 6.46241 61.4275 6.27612C61.7717 6.18282 62.0687 6.09558 62.3021 6.01782C62.4187 5.97898 62.5128 5.94473 62.5851 5.91555C62.621 5.90109 62.6484 5.88908 62.6686 5.87965C62.6866 5.87127 62.6962 5.86602 62.6962 5.86602ZM60.5 1.93782C60.0217 1.66168 59.4102 1.82541 59.1341 2.3037C59.1341 2.3037 59.1294 2.31205 59.1203 2.33142C59.1109 2.35162 59.0989 2.37911 59.0844 2.41495C59.0553 2.48729 59.021 2.58135 58.9822 2.69794C58.9044 2.93141 58.8172 3.22834 58.7239 3.57251C58.5376 4.25972 58.3374 5.09703 58.1521 5.91464L58.1188 6.06211L58.2299 5.95953C58.8453 5.39029 59.4704 4.79827 59.9724 4.29334C60.2238 4.04045 60.4373 3.81643 60.6006 3.63236C60.6822 3.54043 60.7465 3.46374 60.7946 3.40229C60.8184 3.37185 60.8362 3.3477 60.849 3.32944C60.8612 3.31191 60.866 3.30385 60.866 3.30385C61.1422 2.82556 60.9783 2.21397 60.5 1.93782ZM63 9C63.5523 9 64 8.55228 64 8C64 7.44772 63.5525 7 63.0002 7C63.0002 7 62.9906 7.00013 62.9693 7.00198C62.9471 7.00391 62.9173 7.00726 62.879 7.01266C62.8018 7.02355 62.7032 7.04092 62.5828 7.06559C62.3417 7.11498 62.041 7.18789 61.6963 7.27918C61.008 7.46145 60.1827 7.70674 59.382 7.95511L59.2377 8L59.382 8.04489C60.1827 8.29326 61.008 8.53855 61.6963 8.72082C62.041 8.81211 62.3417 8.88502 62.5828 8.93441C62.7032 8.95908 62.8018 8.97645 62.879 8.98734C62.9173 8.99274 62.9471 8.99609 62.9693 8.99802C62.9891 8.99974 63 9 63 9ZM50.9378 4.49993C50.6616 4.97823 50.8255 5.58982 51.3038 5.86596C51.3038 5.86596 51.3134 5.8712 51.3314 5.87959C51.3516 5.88902 51.379 5.90102 51.4149 5.91548C51.4872 5.94467 51.5813 5.97892 51.6979 6.01776C51.9313 6.09552 52.2283 6.18276 52.5725 6.27606C53.2597 6.46234 54.097 6.66253 54.9146 6.84779L55.062 6.88109L54.9595 6.77003C54.3902 6.15459 53.7982 5.52954 53.2933 5.02756C53.0404 4.77614 52.8164 4.56261 52.6323 4.39931C52.5404 4.31775 52.4637 4.25342 52.4022 4.20536C52.3718 4.18155 52.3476 4.16374 52.3294 4.15097C52.3131 4.1396 52.3038 4.1339 52.3038 4.1339C51.8255 3.85776 51.2139 4.02164 50.9378 4.49993ZM53.134 3.30385C53.134 3.30385 53.1397 3.31319 53.151 3.32944C53.1638 3.3477 53.1816 3.37185 53.2054 3.40229C53.2535 3.46374 53.3178 3.54043 53.3994 3.63236C53.5627 3.81643 53.7762 4.04045 54.0276 4.29334C54.5296 4.79827 55.1547 5.39029 55.7701 5.95953L55.8812 6.06211L55.8479 5.91464C55.6626 5.09703 55.4624 4.25972 55.2761 3.57251C55.1828 3.22834 55.0956 2.93141 55.0178 2.69794C54.979 2.58135 54.9447 2.48729 54.9156 2.41495C54.9011 2.37911 54.8891 2.35162 54.8797 2.33142C54.8713 2.31348 54.8659 2.3037 54.8659 2.3037C54.5898 1.82541 53.9783 1.66168 53.5 1.93782C53.0217 2.21397 52.8578 2.82556 53.134 3.30385ZM63.0622 11.5001C63.3384 11.0218 63.1745 10.4102 62.6962 10.134C62.6962 10.134 62.6866 10.1288 62.6686 10.1204C62.6484 10.111 62.621 10.099 62.5851 10.0845C62.5128 10.0553 62.4187 10.0211 62.3021 9.98223C62.0687 9.90447 61.7717 9.81723 61.4275 9.72393C60.7403 9.53765 59.903 9.33746 59.0854 9.1522L58.938 9.1189L59.0405 9.22996C59.6098 9.8454 60.2018 10.4704 60.7067 10.9724C60.9596 11.2238 61.1836 11.4374 61.3677 11.6007C61.4596 11.6822 61.5363 11.7466 61.5978 11.7946C61.6282 11.8184 61.6524 11.8362 61.6706 11.849C61.6868 11.8603 61.6962 11.8661 61.6962 11.8661C62.1745 12.1422 62.7861 11.9783 63.0622 11.5001ZM59.134 13.6961C59.4101 14.1744 60.0217 14.3383 60.5 14.0622C60.9783 13.786 61.1423 13.1746 60.8661 12.6963C60.8661 12.6963 60.8604 12.6869 60.849 12.6706C60.8362 12.6523 60.8184 12.6282 60.7946 12.5977C60.7465 12.5363 60.6822 12.4596 60.6006 12.3676C60.4373 12.1836 60.2238 11.9595 59.9724 11.7067C59.4704 11.2017 58.8453 10.6097 58.2299 10.0405L58.1188 9.93789L58.1522 10.0854C58.3374 10.903 58.5376 11.7403 58.7239 12.4275C58.8172 12.7717 58.9044 13.0686 58.9822 13.3021C59.021 13.4187 59.0553 13.5127 59.0845 13.5851C59.0989 13.6209 59.1109 13.6484 59.1203 13.6686C59.1288 13.6866 59.134 13.6961 59.134 13.6961ZM57 9.5C57.8284 9.5 58.5 8.82843 58.5 8C58.5 7.17157 57.8284 6.5 57 6.5C56.1716 6.5 55.5 7.17157 55.5 8C55.5 8.82843 56.1716 9.5 57 9.5Z" fill="#ED26B7"/>
<mask id="path-2-outside-1_911_498" maskUnits="userSpaceOnUse" x="0.0566406" y="3.15332" width="44" height="11" fill="black">
<rect fill="white" x="0.0566406" y="3.15332" width="44" height="11"/>
<path d="M1.05664 12.9999V4.27264H4.10778C4.71573 4.27264 5.21715 4.37775 5.61204 4.58798C6.00693 4.79537 6.30096 5.0752 6.49414 5.42747C6.68732 5.7769 6.78391 6.16468 6.78391 6.59082C6.78391 6.96582 6.71715 7.27548 6.58363 7.5198C6.45295 7.76412 6.27965 7.9573 6.06374 8.09934C5.85068 8.24139 5.61914 8.3465 5.36914 8.41468V8.49991C5.63619 8.51696 5.90465 8.61071 6.17454 8.78116C6.44443 8.95162 6.67028 9.19593 6.8521 9.51412C7.03391 9.8323 7.12482 10.2215 7.12482 10.6817C7.12482 11.1192 7.02539 11.5127 6.82653 11.8621C6.62766 12.2116 6.31374 12.4885 5.88477 12.6931C5.45579 12.8976 4.89755 12.9999 4.21005 12.9999H1.05664ZM2.11346 12.0624H4.21005C4.90039 12.0624 5.39045 11.9289 5.68022 11.6618C5.97283 11.392 6.11914 11.0653 6.11914 10.6817C6.11914 10.3863 6.04386 10.1135 5.89329 9.86355C5.74272 9.61071 5.52823 9.409 5.24982 9.25843C4.97141 9.10503 4.64187 9.02832 4.26119 9.02832H2.11346V12.0624ZM2.11346 8.10787H4.07369C4.39187 8.10787 4.6788 8.04537 4.93448 7.92037C5.193 7.79537 5.39755 7.61923 5.54812 7.39196C5.70153 7.16468 5.77823 6.89764 5.77823 6.59082C5.77823 6.2073 5.64471 5.88201 5.37766 5.61497C5.11062 5.34508 4.68732 5.21014 4.10778 5.21014H2.11346V8.10787Z"/>
<path d="M8.86133 12.9999V4.27264H9.91815V12.0624H13.975V12.9999H8.86133Z"/>
<path d="M22.6351 8.63628C22.6351 9.55673 22.4689 10.3522 22.1365 11.0226C21.8042 11.6931 21.3482 12.2101 20.7686 12.5738C20.1891 12.9374 19.5272 13.1192 18.7828 13.1192C18.0385 13.1192 17.3766 12.9374 16.7971 12.5738C16.2175 12.2101 15.7615 11.6931 15.4292 11.0226C15.0968 10.3522 14.9306 9.55673 14.9306 8.63628C14.9306 7.71582 15.0968 6.92037 15.4292 6.24991C15.7615 5.57946 16.2175 5.06241 16.7971 4.69878C17.3766 4.33514 18.0385 4.15332 18.7828 4.15332C19.5272 4.15332 20.1891 4.33514 20.7686 4.69878C21.3482 5.06241 21.8042 5.57946 22.1365 6.24991C22.4689 6.92037 22.6351 7.71582 22.6351 8.63628ZM21.6124 8.63628C21.6124 7.88059 21.486 7.24281 21.2331 6.72292C20.9831 6.20304 20.6436 5.80957 20.2147 5.54253C19.7885 5.27548 19.3113 5.14196 18.7828 5.14196C18.2544 5.14196 17.7757 5.27548 17.3468 5.54253C16.9206 5.80957 16.5811 6.20304 16.3283 6.72292C16.0783 7.24281 15.9533 7.88059 15.9533 8.63628C15.9533 9.39196 16.0783 10.0297 16.3283 10.5496C16.5811 11.0695 16.9206 11.463 17.3468 11.73C17.7757 11.9971 18.2544 12.1306 18.7828 12.1306C19.3113 12.1306 19.7885 11.9971 20.2147 11.73C20.6436 11.463 20.9831 11.0695 21.2331 10.5496C21.486 10.0297 21.6124 9.39196 21.6124 8.63628Z"/>
<path d="M31.7757 8.63628C31.7757 9.55673 31.6096 10.3522 31.2772 11.0226C30.9448 11.6931 30.4888 12.2101 29.9093 12.5738C29.3297 12.9374 28.6678 13.1192 27.9235 13.1192C27.1792 13.1192 26.5172 12.9374 25.9377 12.5738C25.3581 12.2101 24.9022 11.6931 24.5698 11.0226C24.2374 10.3522 24.0712 9.55673 24.0712 8.63628C24.0712 7.71582 24.2374 6.92037 24.5698 6.24991C24.9022 5.57946 25.3581 5.06241 25.9377 4.69878C26.5172 4.33514 27.1792 4.15332 27.9235 4.15332C28.6678 4.15332 29.3297 4.33514 29.9093 4.69878C30.4888 5.06241 30.9448 5.57946 31.2772 6.24991C31.6096 6.92037 31.7757 7.71582 31.7757 8.63628ZM30.753 8.63628C30.753 7.88059 30.6266 7.24281 30.3738 6.72292C30.1238 6.20304 29.7843 5.80957 29.3553 5.54253C28.9292 5.27548 28.4519 5.14196 27.9235 5.14196C27.3951 5.14196 26.9164 5.27548 26.4874 5.54253C26.0613 5.80957 25.7218 6.20304 25.4689 6.72292C25.2189 7.24281 25.0939 7.88059 25.0939 8.63628C25.0939 9.39196 25.2189 10.0297 25.4689 10.5496C25.7218 11.0695 26.0613 11.463 26.4874 11.73C26.9164 11.9971 27.3951 12.1306 27.9235 12.1306C28.4519 12.1306 28.9292 11.9971 29.3553 11.73C29.7843 11.463 30.1238 11.0695 30.3738 10.5496C30.6266 10.0297 30.753 9.39196 30.753 8.63628Z"/>
<path d="M33.5527 4.27264H34.8141L37.78 11.517H37.8823L40.8482 4.27264H42.1096V12.9999H41.1209V6.36923H41.0357L38.3084 12.9999H37.3539L34.6266 6.36923H34.5414V12.9999H33.5527V4.27264Z"/>
</mask>
<path d="M1.05664 12.9999V4.27264H4.10778C4.71573 4.27264 5.21715 4.37775 5.61204 4.58798C6.00693 4.79537 6.30096 5.0752 6.49414 5.42747C6.68732 5.7769 6.78391 6.16468 6.78391 6.59082C6.78391 6.96582 6.71715 7.27548 6.58363 7.5198C6.45295 7.76412 6.27965 7.9573 6.06374 8.09934C5.85068 8.24139 5.61914 8.3465 5.36914 8.41468V8.49991C5.63619 8.51696 5.90465 8.61071 6.17454 8.78116C6.44443 8.95162 6.67028 9.19593 6.8521 9.51412C7.03391 9.8323 7.12482 10.2215 7.12482 10.6817C7.12482 11.1192 7.02539 11.5127 6.82653 11.8621C6.62766 12.2116 6.31374 12.4885 5.88477 12.6931C5.45579 12.8976 4.89755 12.9999 4.21005 12.9999H1.05664ZM2.11346 12.0624H4.21005C4.90039 12.0624 5.39045 11.9289 5.68022 11.6618C5.97283 11.392 6.11914 11.0653 6.11914 10.6817C6.11914 10.3863 6.04386 10.1135 5.89329 9.86355C5.74272 9.61071 5.52823 9.409 5.24982 9.25843C4.97141 9.10503 4.64187 9.02832 4.26119 9.02832H2.11346V12.0624ZM2.11346 8.10787H4.07369C4.39187 8.10787 4.6788 8.04537 4.93448 7.92037C5.193 7.79537 5.39755 7.61923 5.54812 7.39196C5.70153 7.16468 5.77823 6.89764 5.77823 6.59082C5.77823 6.2073 5.64471 5.88201 5.37766 5.61497C5.11062 5.34508 4.68732 5.21014 4.10778 5.21014H2.11346V8.10787Z" fill="black"/>
<path d="M8.86133 12.9999V4.27264H9.91815V12.0624H13.975V12.9999H8.86133Z" fill="black"/>
<path d="M22.6351 8.63628C22.6351 9.55673 22.4689 10.3522 22.1365 11.0226C21.8042 11.6931 21.3482 12.2101 20.7686 12.5738C20.1891 12.9374 19.5272 13.1192 18.7828 13.1192C18.0385 13.1192 17.3766 12.9374 16.7971 12.5738C16.2175 12.2101 15.7615 11.6931 15.4292 11.0226C15.0968 10.3522 14.9306 9.55673 14.9306 8.63628C14.9306 7.71582 15.0968 6.92037 15.4292 6.24991C15.7615 5.57946 16.2175 5.06241 16.7971 4.69878C17.3766 4.33514 18.0385 4.15332 18.7828 4.15332C19.5272 4.15332 20.1891 4.33514 20.7686 4.69878C21.3482 5.06241 21.8042 5.57946 22.1365 6.24991C22.4689 6.92037 22.6351 7.71582 22.6351 8.63628ZM21.6124 8.63628C21.6124 7.88059 21.486 7.24281 21.2331 6.72292C20.9831 6.20304 20.6436 5.80957 20.2147 5.54253C19.7885 5.27548 19.3113 5.14196 18.7828 5.14196C18.2544 5.14196 17.7757 5.27548 17.3468 5.54253C16.9206 5.80957 16.5811 6.20304 16.3283 6.72292C16.0783 7.24281 15.9533 7.88059 15.9533 8.63628C15.9533 9.39196 16.0783 10.0297 16.3283 10.5496C16.5811 11.0695 16.9206 11.463 17.3468 11.73C17.7757 11.9971 18.2544 12.1306 18.7828 12.1306C19.3113 12.1306 19.7885 11.9971 20.2147 11.73C20.6436 11.463 20.9831 11.0695 21.2331 10.5496C21.486 10.0297 21.6124 9.39196 21.6124 8.63628Z" fill="black"/>
<path d="M31.7757 8.63628C31.7757 9.55673 31.6096 10.3522 31.2772 11.0226C30.9448 11.6931 30.4888 12.2101 29.9093 12.5738C29.3297 12.9374 28.6678 13.1192 27.9235 13.1192C27.1792 13.1192 26.5172 12.9374 25.9377 12.5738C25.3581 12.2101 24.9022 11.6931 24.5698 11.0226C24.2374 10.3522 24.0712 9.55673 24.0712 8.63628C24.0712 7.71582 24.2374 6.92037 24.5698 6.24991C24.9022 5.57946 25.3581 5.06241 25.9377 4.69878C26.5172 4.33514 27.1792 4.15332 27.9235 4.15332C28.6678 4.15332 29.3297 4.33514 29.9093 4.69878C30.4888 5.06241 30.9448 5.57946 31.2772 6.24991C31.6096 6.92037 31.7757 7.71582 31.7757 8.63628ZM30.753 8.63628C30.753 7.88059 30.6266 7.24281 30.3738 6.72292C30.1238 6.20304 29.7843 5.80957 29.3553 5.54253C28.9292 5.27548 28.4519 5.14196 27.9235 5.14196C27.3951 5.14196 26.9164 5.27548 26.4874 5.54253C26.0613 5.80957 25.7218 6.20304 25.4689 6.72292C25.2189 7.24281 25.0939 7.88059 25.0939 8.63628C25.0939 9.39196 25.2189 10.0297 25.4689 10.5496C25.7218 11.0695 26.0613 11.463 26.4874 11.73C26.9164 11.9971 27.3951 12.1306 27.9235 12.1306C28.4519 12.1306 28.9292 11.9971 29.3553 11.73C29.7843 11.463 30.1238 11.0695 30.3738 10.5496C30.6266 10.0297 30.753 9.39196 30.753 8.63628Z" fill="black"/>
<path d="M33.5527 4.27264H34.8141L37.78 11.517H37.8823L40.8482 4.27264H42.1096V12.9999H41.1209V6.36923H41.0357L38.3084 12.9999H37.3539L34.6266 6.36923H34.5414V12.9999H33.5527V4.27264Z" fill="black"/>
<path d="M1.05664 12.9999V4.27264H4.10778C4.71573 4.27264 5.21715 4.37775 5.61204 4.58798C6.00693 4.79537 6.30096 5.0752 6.49414 5.42747C6.68732 5.7769 6.78391 6.16468 6.78391 6.59082C6.78391 6.96582 6.71715 7.27548 6.58363 7.5198C6.45295 7.76412 6.27965 7.9573 6.06374 8.09934C5.85068 8.24139 5.61914 8.3465 5.36914 8.41468V8.49991C5.63619 8.51696 5.90465 8.61071 6.17454 8.78116C6.44443 8.95162 6.67028 9.19593 6.8521 9.51412C7.03391 9.8323 7.12482 10.2215 7.12482 10.6817C7.12482 11.1192 7.02539 11.5127 6.82653 11.8621C6.62766 12.2116 6.31374 12.4885 5.88477 12.6931C5.45579 12.8976 4.89755 12.9999 4.21005 12.9999H1.05664ZM2.11346 12.0624H4.21005C4.90039 12.0624 5.39045 11.9289 5.68022 11.6618C5.97283 11.392 6.11914 11.0653 6.11914 10.6817C6.11914 10.3863 6.04386 10.1135 5.89329 9.86355C5.74272 9.61071 5.52823 9.409 5.24982 9.25843C4.97141 9.10503 4.64187 9.02832 4.26119 9.02832H2.11346V12.0624ZM2.11346 8.10787H4.07369C4.39187 8.10787 4.6788 8.04537 4.93448 7.92037C5.193 7.79537 5.39755 7.61923 5.54812 7.39196C5.70153 7.16468 5.77823 6.89764 5.77823 6.59082C5.77823 6.2073 5.64471 5.88201 5.37766 5.61497C5.11062 5.34508 4.68732 5.21014 4.10778 5.21014H2.11346V8.10787Z" stroke="white" stroke-width="2" mask="url(#path-2-outside-1_911_498)"/>
<path d="M8.86133 12.9999V4.27264H9.91815V12.0624H13.975V12.9999H8.86133Z" stroke="white" stroke-width="2" mask="url(#path-2-outside-1_911_498)"/>
<path d="M22.6351 8.63628C22.6351 9.55673 22.4689 10.3522 22.1365 11.0226C21.8042 11.6931 21.3482 12.2101 20.7686 12.5738C20.1891 12.9374 19.5272 13.1192 18.7828 13.1192C18.0385 13.1192 17.3766 12.9374 16.7971 12.5738C16.2175 12.2101 15.7615 11.6931 15.4292 11.0226C15.0968 10.3522 14.9306 9.55673 14.9306 8.63628C14.9306 7.71582 15.0968 6.92037 15.4292 6.24991C15.7615 5.57946 16.2175 5.06241 16.7971 4.69878C17.3766 4.33514 18.0385 4.15332 18.7828 4.15332C19.5272 4.15332 20.1891 4.33514 20.7686 4.69878C21.3482 5.06241 21.8042 5.57946 22.1365 6.24991C22.4689 6.92037 22.6351 7.71582 22.6351 8.63628ZM21.6124 8.63628C21.6124 7.88059 21.486 7.24281 21.2331 6.72292C20.9831 6.20304 20.6436 5.80957 20.2147 5.54253C19.7885 5.27548 19.3113 5.14196 18.7828 5.14196C18.2544 5.14196 17.7757 5.27548 17.3468 5.54253C16.9206 5.80957 16.5811 6.20304 16.3283 6.72292C16.0783 7.24281 15.9533 7.88059 15.9533 8.63628C15.9533 9.39196 16.0783 10.0297 16.3283 10.5496C16.5811 11.0695 16.9206 11.463 17.3468 11.73C17.7757 11.9971 18.2544 12.1306 18.7828 12.1306C19.3113 12.1306 19.7885 11.9971 20.2147 11.73C20.6436 11.463 20.9831 11.0695 21.2331 10.5496C21.486 10.0297 21.6124 9.39196 21.6124 8.63628Z" stroke="white" stroke-width="2" mask="url(#path-2-outside-1_911_498)"/>
<path d="M31.7757 8.63628C31.7757 9.55673 31.6096 10.3522 31.2772 11.0226C30.9448 11.6931 30.4888 12.2101 29.9093 12.5738C29.3297 12.9374 28.6678 13.1192 27.9235 13.1192C27.1792 13.1192 26.5172 12.9374 25.9377 12.5738C25.3581 12.2101 24.9022 11.6931 24.5698 11.0226C24.2374 10.3522 24.0712 9.55673 24.0712 8.63628C24.0712 7.71582 24.2374 6.92037 24.5698 6.24991C24.9022 5.57946 25.3581 5.06241 25.9377 4.69878C26.5172 4.33514 27.1792 4.15332 27.9235 4.15332C28.6678 4.15332 29.3297 4.33514 29.9093 4.69878C30.4888 5.06241 30.9448 5.57946 31.2772 6.24991C31.6096 6.92037 31.7757 7.71582 31.7757 8.63628ZM30.753 8.63628C30.753 7.88059 30.6266 7.24281 30.3738 6.72292C30.1238 6.20304 29.7843 5.80957 29.3553 5.54253C28.9292 5.27548 28.4519 5.14196 27.9235 5.14196C27.3951 5.14196 26.9164 5.27548 26.4874 5.54253C26.0613 5.80957 25.7218 6.20304 25.4689 6.72292C25.2189 7.24281 25.0939 7.88059 25.0939 8.63628C25.0939 9.39196 25.2189 10.0297 25.4689 10.5496C25.7218 11.0695 26.0613 11.463 26.4874 11.73C26.9164 11.9971 27.3951 12.1306 27.9235 12.1306C28.4519 12.1306 28.9292 11.9971 29.3553 11.73C29.7843 11.463 30.1238 11.0695 30.3738 10.5496C30.6266 10.0297 30.753 9.39196 30.753 8.63628Z" stroke="white" stroke-width="2" mask="url(#path-2-outside-1_911_498)"/>
<path d="M33.5527 4.27264H34.8141L37.78 11.517H37.8823L40.8482 4.27264H42.1096V12.9999H41.1209V6.36923H41.0357L38.3084 12.9999H37.3539L34.6266 6.36923H34.5414V12.9999H33.5527V4.27264Z" stroke="white" stroke-width="2" mask="url(#path-2-outside-1_911_498)"/>
</svg>
